<?xml version="1.0" encoding="utf-8"?>
<!-- Generator: Adobe Illustrator 21.0.0, SVG Export Plug-In . SVG Version: 6.00 Build 0)  -->
<svg version="1.1" id="Layer_1" xmlns="http://www.w3.org/2000/svg" xmlns:xlink="http://www.w3.org/1999/xlink" x="0px" y="0px"
	 viewBox="0 0 38 38" style="enable-background:new 0 0 38 38;" xml:space="preserve">
<style type="text/css">
	.st0{fill:#878787;}
	.st1{fill:none;stroke:#878787;stroke-width:2;stroke-miterlimit:10;}
</style>
<g>
	<path class="st0" d="M19,1.5c9.7,0,17.5,7.9,17.5,17.5c0,9.7-7.9,17.5-17.5,17.5C9.3,36.5,1.5,28.7,1.5,19S9.3,1.5,19,1.5 M19,0
		C8.5,0,0,8.5,0,19s8.5,19,19,19s19-8.5,19-19S29.5,0,19,0L19,0z"/>
	<g>
		<polygon class="st0" points="20.3,15.8 17.5,15.8 17.5,12.9 16.4,12.9 16.4,15.8 13.6,15.8 13.6,16.8 16.4,16.8 16.4,19.6 
			17.5,19.6 17.5,16.8 20.3,16.8 		"/>
		<circle class="st1" cx="16.9" cy="16.3" r="6.6"/>
		<line class="st1" x1="20.6" y1="20.7" x2="26.4" y2="27.8"/>
	</g>
</g>
</svg>
