<?xml version="1.0" encoding="utf-8"?>
<!-- Generator: Adobe Illustrator 21.0.0, SVG Export Plug-In . SVG Version: 6.00 Build 0)  -->
<svg version="1.1" id="Layer_1" xmlns="http://www.w3.org/2000/svg" xmlns:xlink="http://www.w3.org/1999/xlink" x="0px" y="0px"
	 viewBox="0 0 38 38" style="enable-background:new 0 0 38 38;" xml:space="preserve">
<style type="text/css">
	.st0{fill:#878787;}
</style>
<g>
	<path class="st0" d="M19,1.5c9.6,0,17.5,7.8,17.5,17.5c0,9.6-7.8,17.5-17.5,17.5S1.5,28.6,1.5,19C1.5,9.4,9.4,1.5,19,1.5 M19,0
		C8.5,0,0,8.5,0,19s8.5,19,19,19s19-8.5,19-19S29.5,0,19,0L19,0z"/>
	<polygon class="st0" points="25.1,24.3 20.4,19.1 25.6,14.4 24.3,12.9 19.1,17.6 14.4,12.4 12.9,13.7 17.6,18.9 12.4,23.6 
		13.7,25.1 18.9,20.4 23.6,25.6 	"/>
</g>
</svg>
