<?xml version="1.0" encoding="utf-8"?>
<!-- Generator: Adobe Illustrator 21.0.0, SVG Export Plug-In . SVG Version: 6.00 Build 0)  -->
<svg version="1.1" id="Layer_1" xmlns="http://www.w3.org/2000/svg" xmlns:xlink="http://www.w3.org/1999/xlink" x="0px" y="0px"
	 viewBox="0 0 38 38" style="enable-background:new 0 0 38 38;" xml:space="preserve">
<style type="text/css">
	.st0{fill:#878787;}
	.st1{fill:none;stroke:#878787;stroke-width:2;stroke-miterlimit:10;}
</style>
<g>
	<path class="st0" d="M19,1.5c9.7,0,17.5,7.9,17.5,17.5c0,9.7-7.9,17.5-17.5,17.5C9.3,36.5,1.5,28.7,1.5,19S9.3,1.5,19,1.5 M19,0
		C8.5,0,0,8.5,0,19s8.5,19,19,19s19-8.5,19-19S29.5,0,19,0L19,0z"/>
	<g>
		<polyline class="st0" points="17.8,15.5 13.5,15.5 13.5,16.5 17.8,16.5 		"/>
		<polyline class="st0" points="17.1,16.5 19.9,16.5 19.9,15.5 17.1,15.5 		"/>
		<circle class="st1" cx="16.7" cy="16" r="6.2"/>
		<line class="st1" x1="20.2" y1="20.2" x2="25.8" y2="26.8"/>
	</g>
</g>
</svg>
